<svg xmlns="http://www.w3.org/2000/svg" viewBox="0 0 32 32">
  <rect width="32" height="32" rx="6" fill="#0c82d6"/>
  <g transform="translate(16, 16) scale(0.35)">
    <path d="M0,-35 Q15,-35 20,-20 Q25,-5 15,5 Q5,15 -10,12 Q-25,9 -28,-5 Q-31,-19 -20,-28 Q-9,-37 5,-35"
          fill="none" stroke="white" stroke-width="3" stroke-linecap="round"/>
    <path d="M5,-30 Q17,-28 20,-15 Q23,-2 12,6 Q1,14 -12,10 Q-25,6 -26,-8 Q-27,-22 -15,-28 Q-3,-34 8,-30"
          fill="none" stroke="white" stroke-width="3" stroke-linecap="round"/>
    <path d="M8,-25 Q18,-22 19,-10 Q20,2 10,8 Q0,14 -12,9 Q-24,4 -23,-9 Q-22,-22 -10,-26 Q2,-30 10,-25"
          fill="none" stroke="white" stroke-width="3" stroke-linecap="round"/>
    <path d="M10,-20 Q17,-16 16,-6 Q15,4 6,8 Q-3,12 -13,6 Q-23,0 -20,-12 Q-17,-24 -5,-24 Q7,-24 12,-18"
          fill="none" stroke="white" stroke-width="3" stroke-linecap="round"/>
    <path d="M10,-14 Q14,-10 12,-2 Q10,6 2,8 Q-6,10 -12,4 Q-18,-2 -14,-12 Q-10,-22 0,-20 Q10,-18 12,-12"
          fill="none" stroke="white" stroke-width="3" stroke-linecap="round"/>
    <path d="M8,-8 Q10,-4 7,2 Q4,8 -2,8 Q-8,8 -10,2 Q-12,-4 -8,-10 Q-4,-16 4,-14 Q12,-12 10,-6"
          fill="none" stroke="white" stroke-width="3" stroke-linecap="round"/>
  </g>
</svg>
